%FSLAX45Y45*%
G04 Gerber Fmt 4.5, Leading zero omitted, Abs format (unit mm)*
G04 Created by KiCad (PCBNEW 5.1.5+dfsg1-2build2) date 2021-12-01 16:10:30*
%MOMM*%
%LPD*%
G04 APERTURE LIST*
%TA.AperFunction,Profile*%
%ADD10C,0.500000*%
%TD*%
%ADD11C,0.200000*%
%ADD12C,0.300000*%
G04 APERTURE END LIST*
D10*
X20000000Y-5300000D02*
X20000000Y-14700000D01*
X20000000Y-14700000D02*
G75*
G02X19700000Y-15000000I-300000J0D01*
G01*
X10300000Y-15000000D02*
G75*
G02X10000000Y-14700000I0J300000D01*
G01*
X19700000Y-5000000D02*
G75*
G02X20000000Y-5300000I0J-300000D01*
G01*
X10000000Y-5300000D02*
G75*
G02X10300000Y-5000000I300000J0D01*
G01*
X10000000Y-14700000D02*
X10000000Y-5300000D01*
X19700000Y-15000000D02*
X10300000Y-15000000D01*
X10300000Y-5000000D02*
X19700000Y-5000000D01*
D11*
X10165000Y-14565000D02*
X10435000Y-14835000D01*
X10435000Y-14565000D02*
X10165000Y-14835000D01*
X19565000Y-14565000D02*
X19835000Y-14835000D01*
X19835000Y-14565000D02*
X19565000Y-14835000D01*
X10165000Y-5165000D02*
X10435000Y-5435000D01*
X10435000Y-5165000D02*
X10165000Y-5435000D01*
X19565000Y-5165000D02*
X19835000Y-5435000D01*
X19835000Y-5165000D02*
X19565000Y-5435000D01*
D12*
X10261428Y-15490714D02*
X10261428Y-15190714D01*
X10332857Y-15190714D01*
X10375714Y-15205000D01*
X10404286Y-15233571D01*
X10418571Y-15262143D01*
X10432857Y-15319286D01*
X10432857Y-15362143D01*
X10418571Y-15419286D01*
X10404286Y-15447857D01*
X10375714Y-15476429D01*
X10332857Y-15490714D01*
X10261428Y-15490714D01*
X10561428Y-15490714D02*
X10561428Y-15290714D01*
X10561428Y-15347857D02*
X10575714Y-15319286D01*
X10590000Y-15305000D01*
X10618571Y-15290714D01*
X10647143Y-15290714D01*
X10747143Y-15490714D02*
X10747143Y-15290714D01*
X10747143Y-15190714D02*
X10732857Y-15205000D01*
X10747143Y-15219286D01*
X10761428Y-15205000D01*
X10747143Y-15190714D01*
X10747143Y-15219286D01*
X10932857Y-15490714D02*
X10904286Y-15476429D01*
X10890000Y-15447857D01*
X10890000Y-15190714D01*
X11090000Y-15490714D02*
X11061428Y-15476429D01*
X11047143Y-15447857D01*
X11047143Y-15190714D01*
X11432857Y-15490714D02*
X11432857Y-15190714D01*
X11532857Y-15405000D01*
X11632857Y-15190714D01*
X11632857Y-15490714D01*
X11904286Y-15490714D02*
X11904286Y-15333571D01*
X11890000Y-15305000D01*
X11861428Y-15290714D01*
X11804286Y-15290714D01*
X11775714Y-15305000D01*
X11904286Y-15476429D02*
X11875714Y-15490714D01*
X11804286Y-15490714D01*
X11775714Y-15476429D01*
X11761428Y-15447857D01*
X11761428Y-15419286D01*
X11775714Y-15390714D01*
X11804286Y-15376429D01*
X11875714Y-15376429D01*
X11904286Y-15362143D01*
X12047143Y-15290714D02*
X12047143Y-15590714D01*
X12047143Y-15305000D02*
X12075714Y-15290714D01*
X12132857Y-15290714D01*
X12161428Y-15305000D01*
X12175714Y-15319286D01*
X12190000Y-15347857D01*
X12190000Y-15433571D01*
X12175714Y-15462143D01*
X12161428Y-15476429D01*
X12132857Y-15490714D01*
X12075714Y-15490714D01*
X12047143Y-15476429D01*
X12318571Y-15462143D02*
X12332857Y-15476429D01*
X12318571Y-15490714D01*
X12304286Y-15476429D01*
X12318571Y-15462143D01*
X12318571Y-15490714D01*
X12318571Y-15305000D02*
X12332857Y-15319286D01*
X12318571Y-15333571D01*
X12304286Y-15319286D01*
X12318571Y-15305000D01*
X12318571Y-15333571D01*
X9705000Y-15850000D02*
X9975000Y-16120000D01*
X9975000Y-15850000D02*
X9705000Y-16120000D01*
X10247143Y-15849286D02*
X10261428Y-15835000D01*
X10290000Y-15820714D01*
X10361428Y-15820714D01*
X10390000Y-15835000D01*
X10404286Y-15849286D01*
X10418571Y-15877857D01*
X10418571Y-15906429D01*
X10404286Y-15949286D01*
X10232857Y-16120714D01*
X10418571Y-16120714D01*
X10547143Y-16092143D02*
X10561428Y-16106429D01*
X10547143Y-16120714D01*
X10532857Y-16106429D01*
X10547143Y-16092143D01*
X10547143Y-16120714D01*
X10661428Y-15820714D02*
X10861428Y-15820714D01*
X10732857Y-16120714D01*
X11032857Y-15820714D02*
X11061428Y-15820714D01*
X11090000Y-15835000D01*
X11104286Y-15849286D01*
X11118571Y-15877857D01*
X11132857Y-15935000D01*
X11132857Y-16006429D01*
X11118571Y-16063571D01*
X11104286Y-16092143D01*
X11090000Y-16106429D01*
X11061428Y-16120714D01*
X11032857Y-16120714D01*
X11004286Y-16106429D01*
X10990000Y-16092143D01*
X10975714Y-16063571D01*
X10961428Y-16006429D01*
X10961428Y-15935000D01*
X10975714Y-15877857D01*
X10990000Y-15849286D01*
X11004286Y-15835000D01*
X11032857Y-15820714D01*
X11261428Y-16120714D02*
X11261428Y-15920714D01*
X11261428Y-15949286D02*
X11275714Y-15935000D01*
X11304286Y-15920714D01*
X11347143Y-15920714D01*
X11375714Y-15935000D01*
X11390000Y-15963571D01*
X11390000Y-16120714D01*
X11390000Y-15963571D02*
X11404286Y-15935000D01*
X11432857Y-15920714D01*
X11475714Y-15920714D01*
X11504286Y-15935000D01*
X11518571Y-15963571D01*
X11518571Y-16120714D01*
X11661428Y-16120714D02*
X11661428Y-15920714D01*
X11661428Y-15949286D02*
X11675714Y-15935000D01*
X11704286Y-15920714D01*
X11747143Y-15920714D01*
X11775714Y-15935000D01*
X11790000Y-15963571D01*
X11790000Y-16120714D01*
X11790000Y-15963571D02*
X11804286Y-15935000D01*
X11832857Y-15920714D01*
X11875714Y-15920714D01*
X11904286Y-15935000D01*
X11918571Y-15963571D01*
X11918571Y-16120714D01*
X12504286Y-15806429D02*
X12247143Y-16192143D01*
X12890000Y-15820714D02*
X12918571Y-15820714D01*
X12947143Y-15835000D01*
X12961428Y-15849286D01*
X12975714Y-15877857D01*
X12990000Y-15935000D01*
X12990000Y-16006429D01*
X12975714Y-16063571D01*
X12961428Y-16092143D01*
X12947143Y-16106429D01*
X12918571Y-16120714D01*
X12890000Y-16120714D01*
X12861428Y-16106429D01*
X12847143Y-16092143D01*
X12832857Y-16063571D01*
X12818571Y-16006429D01*
X12818571Y-15935000D01*
X12832857Y-15877857D01*
X12847143Y-15849286D01*
X12861428Y-15835000D01*
X12890000Y-15820714D01*
X13118571Y-16092143D02*
X13132857Y-16106429D01*
X13118571Y-16120714D01*
X13104286Y-16106429D01*
X13118571Y-16092143D01*
X13118571Y-16120714D01*
X13418571Y-16120714D02*
X13247143Y-16120714D01*
X13332857Y-16120714D02*
X13332857Y-15820714D01*
X13304286Y-15863571D01*
X13275714Y-15892143D01*
X13247143Y-15906429D01*
X13604286Y-15820714D02*
X13632857Y-15820714D01*
X13661428Y-15835000D01*
X13675714Y-15849286D01*
X13690000Y-15877857D01*
X13704286Y-15935000D01*
X13704286Y-16006429D01*
X13690000Y-16063571D01*
X13675714Y-16092143D01*
X13661428Y-16106429D01*
X13632857Y-16120714D01*
X13604286Y-16120714D01*
X13575714Y-16106429D01*
X13561428Y-16092143D01*
X13547143Y-16063571D01*
X13532857Y-16006429D01*
X13532857Y-15935000D01*
X13547143Y-15877857D01*
X13561428Y-15849286D01*
X13575714Y-15835000D01*
X13604286Y-15820714D01*
X13961428Y-15820714D02*
X13904286Y-15820714D01*
X13875714Y-15835000D01*
X13861428Y-15849286D01*
X13832857Y-15892143D01*
X13818571Y-15949286D01*
X13818571Y-16063571D01*
X13832857Y-16092143D01*
X13847143Y-16106429D01*
X13875714Y-16120714D01*
X13932857Y-16120714D01*
X13961428Y-16106429D01*
X13975714Y-16092143D01*
X13990000Y-16063571D01*
X13990000Y-15992143D01*
X13975714Y-15963571D01*
X13961428Y-15949286D01*
X13932857Y-15935000D01*
X13875714Y-15935000D01*
X13847143Y-15949286D01*
X13832857Y-15963571D01*
X13818571Y-15992143D01*
X14104286Y-15820714D02*
X14104286Y-15877857D01*
X14218571Y-15820714D02*
X14218571Y-15877857D01*
X14661428Y-16235000D02*
X14647143Y-16220714D01*
X14618571Y-16177857D01*
X14604286Y-16149286D01*
X14590000Y-16106429D01*
X14575714Y-16035000D01*
X14575714Y-15977857D01*
X14590000Y-15906429D01*
X14604286Y-15863571D01*
X14618571Y-15835000D01*
X14647143Y-15792143D01*
X14661428Y-15777857D01*
X14904286Y-15920714D02*
X14904286Y-16120714D01*
X14832857Y-15806429D02*
X14761428Y-16020714D01*
X14947143Y-16020714D01*
X15290000Y-16120714D02*
X15290000Y-15820714D01*
X15418571Y-16120714D02*
X15418571Y-15963571D01*
X15404286Y-15935000D01*
X15375714Y-15920714D01*
X15332857Y-15920714D01*
X15304286Y-15935000D01*
X15290000Y-15949286D01*
X15604286Y-16120714D02*
X15575714Y-16106429D01*
X15561428Y-16092143D01*
X15547143Y-16063571D01*
X15547143Y-15977857D01*
X15561428Y-15949286D01*
X15575714Y-15935000D01*
X15604286Y-15920714D01*
X15647143Y-15920714D01*
X15675714Y-15935000D01*
X15690000Y-15949286D01*
X15704286Y-15977857D01*
X15704286Y-16063571D01*
X15690000Y-16092143D01*
X15675714Y-16106429D01*
X15647143Y-16120714D01*
X15604286Y-16120714D01*
X15875714Y-16120714D02*
X15847143Y-16106429D01*
X15832857Y-16077857D01*
X15832857Y-15820714D01*
X16104286Y-16106429D02*
X16075714Y-16120714D01*
X16018571Y-16120714D01*
X15990000Y-16106429D01*
X15975714Y-16077857D01*
X15975714Y-15963571D01*
X15990000Y-15935000D01*
X16018571Y-15920714D01*
X16075714Y-15920714D01*
X16104286Y-15935000D01*
X16118571Y-15963571D01*
X16118571Y-15992143D01*
X15975714Y-16020714D01*
X16232857Y-16106429D02*
X16261428Y-16120714D01*
X16318571Y-16120714D01*
X16347143Y-16106429D01*
X16361428Y-16077857D01*
X16361428Y-16063571D01*
X16347143Y-16035000D01*
X16318571Y-16020714D01*
X16275714Y-16020714D01*
X16247143Y-16006429D01*
X16232857Y-15977857D01*
X16232857Y-15963571D01*
X16247143Y-15935000D01*
X16275714Y-15920714D01*
X16318571Y-15920714D01*
X16347143Y-15935000D01*
X16461428Y-16235000D02*
X16475714Y-16220714D01*
X16504286Y-16177857D01*
X16518571Y-16149286D01*
X16532857Y-16106429D01*
X16547143Y-16035000D01*
X16547143Y-15977857D01*
X16532857Y-15906429D01*
X16518571Y-15863571D01*
X16504286Y-15835000D01*
X16475714Y-15792143D01*
X16461428Y-15777857D01*
X17004286Y-16235000D02*
X16990000Y-16220714D01*
X16961428Y-16177857D01*
X16947143Y-16149286D01*
X16932857Y-16106429D01*
X16918571Y-16035000D01*
X16918571Y-15977857D01*
X16932857Y-15906429D01*
X16947143Y-15863571D01*
X16961428Y-15835000D01*
X16990000Y-15792143D01*
X17004286Y-15777857D01*
X17118571Y-15920714D02*
X17118571Y-16120714D01*
X17118571Y-15949286D02*
X17132857Y-15935000D01*
X17161428Y-15920714D01*
X17204286Y-15920714D01*
X17232857Y-15935000D01*
X17247143Y-15963571D01*
X17247143Y-16120714D01*
X17432857Y-16120714D02*
X17404286Y-16106429D01*
X17390000Y-16092143D01*
X17375714Y-16063571D01*
X17375714Y-15977857D01*
X17390000Y-15949286D01*
X17404286Y-15935000D01*
X17432857Y-15920714D01*
X17475714Y-15920714D01*
X17504286Y-15935000D01*
X17518571Y-15949286D01*
X17532857Y-15977857D01*
X17532857Y-16063571D01*
X17518571Y-16092143D01*
X17504286Y-16106429D01*
X17475714Y-16120714D01*
X17432857Y-16120714D01*
X17618571Y-15920714D02*
X17732857Y-15920714D01*
X17661428Y-15820714D02*
X17661428Y-16077857D01*
X17675714Y-16106429D01*
X17704286Y-16120714D01*
X17732857Y-16120714D01*
X18061428Y-15920714D02*
X18061428Y-16220714D01*
X18061428Y-15935000D02*
X18090000Y-15920714D01*
X18147143Y-15920714D01*
X18175714Y-15935000D01*
X18190000Y-15949286D01*
X18204286Y-15977857D01*
X18204286Y-16063571D01*
X18190000Y-16092143D01*
X18175714Y-16106429D01*
X18147143Y-16120714D01*
X18090000Y-16120714D01*
X18061428Y-16106429D01*
X18375714Y-16120714D02*
X18347143Y-16106429D01*
X18332857Y-16077857D01*
X18332857Y-15820714D01*
X18618571Y-16120714D02*
X18618571Y-15963571D01*
X18604286Y-15935000D01*
X18575714Y-15920714D01*
X18518571Y-15920714D01*
X18490000Y-15935000D01*
X18618571Y-16106429D02*
X18590000Y-16120714D01*
X18518571Y-16120714D01*
X18490000Y-16106429D01*
X18475714Y-16077857D01*
X18475714Y-16049286D01*
X18490000Y-16020714D01*
X18518571Y-16006429D01*
X18590000Y-16006429D01*
X18618571Y-15992143D01*
X18718571Y-15920714D02*
X18832857Y-15920714D01*
X18761428Y-15820714D02*
X18761428Y-16077857D01*
X18775714Y-16106429D01*
X18804286Y-16120714D01*
X18832857Y-16120714D01*
X19047143Y-16106429D02*
X19018571Y-16120714D01*
X18961428Y-16120714D01*
X18932857Y-16106429D01*
X18918571Y-16077857D01*
X18918571Y-15963571D01*
X18932857Y-15935000D01*
X18961428Y-15920714D01*
X19018571Y-15920714D01*
X19047143Y-15935000D01*
X19061428Y-15963571D01*
X19061428Y-15992143D01*
X18918571Y-16020714D01*
X19318571Y-16120714D02*
X19318571Y-15820714D01*
X19318571Y-16106429D02*
X19290000Y-16120714D01*
X19232857Y-16120714D01*
X19204286Y-16106429D01*
X19190000Y-16092143D01*
X19175714Y-16063571D01*
X19175714Y-15977857D01*
X19190000Y-15949286D01*
X19204286Y-15935000D01*
X19232857Y-15920714D01*
X19290000Y-15920714D01*
X19318571Y-15935000D01*
X19432857Y-16235000D02*
X19447143Y-16220714D01*
X19475714Y-16177857D01*
X19490000Y-16149286D01*
X19504286Y-16106429D01*
X19518571Y-16035000D01*
X19518571Y-15977857D01*
X19504286Y-15906429D01*
X19490000Y-15863571D01*
X19475714Y-15835000D01*
X19447143Y-15792143D01*
X19432857Y-15777857D01*
M02*
