M48
; DRILL file {KiCad 5.1.5+dfsg1-2build2} date Fri Aug 20 12:13:46 2021
; FORMAT={-:-/ absolute / metric / decimal}
; #@! TF.CreationDate,2021-08-20T12:13:46-05:00
; #@! TF.GenerationSoftware,Kicad,Pcbnew,5.1.5+dfsg1-2build2
; #@! TF.FileFunction,Plated,1,4,PTH
FMAT,2
METRIC
T1C0.450
T2C0.635
T3C0.700
T4C0.750
T5C0.762
T6C0.800
T7C0.900
T8C1.000
T9C1.200
%
G90
G05
T1
X103.378Y-115.57
X104.267Y-110.236
X104.394Y-118.364
X111.112Y-133.007
X112.776Y-83.058
X112.776Y-103.632
X112.776Y-116.459
X113.411Y-107.95
X113.525Y-58.941
X113.792Y-85.852
X114.021Y-93.301
X114.046Y-98.044
X114.046Y-106.172
X114.292Y-108.452
X115.811Y-61.481
X117.539Y-143.7
X117.589Y-135.725
X118.364Y-64.008
X119.253Y-146.05
X119.697Y-143.954
X120.345Y-146.101
X120.345Y-148.946
X120.67Y-144.81
X120.891Y-66.561
X122.161Y-104.661
X122.174Y-67.056
X123.336Y-97.041
X123.762Y-132.905
X123.965Y-91.961
X124.246Y-135.82
X124.327Y-106.142
X124.46Y-87.884
X127.0Y-122.174
X127.013Y-104.877
X127.641Y-102.308
X127.762Y-64.45
X127.762Y-127.508
X128.27Y-126.238
X128.899Y-118.618
X129.165Y-116.078
X129.794Y-121.158
X129.921Y-124.714
X130.289Y-59.423
X130.435Y-72.644
X130.556Y-69.596
X130.74Y-75.692
X131.064Y-57.404
X132.08Y-80.772
X132.467Y-62.779
X132.467Y-70.638
X132.966Y-83.073
X133.096Y-60.452
X134.112Y-60.452
X134.112Y-73.152
X134.239Y-78.74
X134.554Y-127.049
X135.007Y-80.131
X137.414Y-83.312
X137.414Y-123.19
X138.176Y-88.513
X138.43Y-81.534
X138.684Y-54.61
X139.192Y-84.836
X139.319Y-114.046
X139.319Y-129.159
X139.954Y-62.992
X140.081Y-54.356
X140.208Y-74.168
X140.208Y-93.472
X140.703Y-61.963
X140.716Y-68.072
X141.357Y-96.012
X141.478Y-77.216
X141.732Y-56.896
X141.732Y-75.692
X142.494Y-66.161
X142.939Y-79.439
X145.896Y-104.781
X147.079Y-125.343
X148.082Y-131.064
X148.336Y-60.452
X148.336Y-66.548
X149.098Y-59.436
X149.098Y-123.698
X149.098Y-128.016
X149.352Y-93.472
X149.606Y-96.012
X149.739Y-61.976
X149.993Y-90.932
X150.368Y-97.282
X150.622Y-79.248
X151.384Y-64.516
X151.384Y-88.392
X152.146Y-54.102
X152.146Y-69.85
X152.908Y-74.93
X152.908Y-70.612
X154.613Y-105.352
X154.686Y-127.254
X155.194Y-135.007
X155.359Y-105.944
X155.448Y-61.468
X155.448Y-91.948
X155.448Y-106.934
X156.464Y-93.472
X156.597Y-89.275
X156.972Y-64.008
X157.226Y-88.138
X157.347Y-97.041
X157.988Y-56.896
X158.093Y-94.258
X158.426Y-115.033
X158.75Y-78.232
X158.75Y-87.884
X158.75Y-90.932
X159.137Y-117.501
X159.258Y-123.571
X159.475Y-58.795
X159.499Y-97.041
X160.02Y-100.838
X160.147Y-104.013
X160.147Y-125.095
X160.261Y-94.856
X160.274Y-128.778
X160.528Y-87.884
X160.782Y-66.548
X161.328Y-126.276
X161.461Y-118.332
X161.798Y-128.016
X162.681Y-116.024
X162.681Y-120.122
X164.084Y-93.218
X165.933Y-139.141
X166.978Y-104.675
X167.132Y-67.31
X167.64Y-70.612
X167.64Y-83.312
X168.072Y-124.689
X169.659Y-132.829
X169.672Y-52.578
X170.288Y-114.681
X171.018Y-121.158
X171.584Y-128.306
X172.841Y-123.68
X173.457Y-122.657
X175.815Y-135.865
X176.784Y-80.772
X176.979Y-84.017
X177.991Y-87.059
X178.054Y-75.692
X178.281Y-104.675
X178.791Y-132.74
X179.07Y-93.218
X181.481Y-125.292
X181.661Y-143.002
X182.372Y-117.856
X182.372Y-135.128
X182.702Y-120.625
X182.798Y-126.822
X182.798Y-128.777
X183.102Y-123.822
X183.731Y-122.326
X184.175Y-143.84
X184.362Y-123.148
X184.861Y-129.819
X184.912Y-92.202
X185.166Y-75.692
X185.198Y-118.694
X185.274Y-124.486
X185.503Y-113.046
X185.547Y-93.624
X186.487Y-85.827
X186.639Y-140.437
X186.76Y-124.943
X186.817Y-130.124
X191.77Y-135.128
X192.532Y-77.216
X192.532Y-90.932
X193.421Y-123.723
X193.802Y-73.152
X193.802Y-82.55
X193.98Y-126.238
X194.488Y-116.815
X194.564Y-75.946
X194.564Y-79.502
X194.767Y-128.778
X195.072Y-56.896
X195.072Y-62.992
X195.58Y-69.596
X195.58Y-78.232
X195.732Y-121.158
X195.834Y-137.668
X196.113Y-81.788
X196.342Y-99.822
X196.444Y-124.054
X196.596Y-136.652
X196.615Y-64.916
T2
X122.521Y-144.742
X122.555Y-146.05
T3
X102.794Y-136.652
X102.794Y-141.732
X104.877Y-136.652
X104.877Y-141.732
X110.16Y-121.463
X115.24Y-121.463
X168.402Y-103.124
X173.482Y-103.124
X168.402Y-101.092
X173.482Y-101.092
X110.16Y-119.431
X115.24Y-119.431
X148.336Y-55.372
X153.416Y-55.372
X110.16Y-113.335
X115.24Y-113.335
X110.16Y-111.303
X115.24Y-111.303
X110.16Y-109.271
X115.24Y-109.271
X110.16Y-117.399
X115.24Y-117.399
X109.398Y-140.97
X110.198Y-142.17
X110.998Y-140.97
X111.798Y-142.17
X112.598Y-140.97
X110.16Y-115.367
X115.24Y-115.367
T4
X165.608Y-100.711
X165.608Y-101.981
X165.608Y-103.251
T5
X108.204Y-140.716
X108.204Y-141.986
X113.792Y-140.716
X113.792Y-141.986
X119.888Y-117.983
X119.888Y-119.507
X119.888Y-121.031
T6
X107.696Y-85.852
X107.696Y-88.392
X107.696Y-90.932
X107.696Y-93.472
X107.696Y-96.012
X107.696Y-98.552
X107.696Y-101.092
X107.696Y-103.632
X107.696Y-106.172
X108.204Y-52.578
X110.744Y-52.578
X113.284Y-52.578
X115.824Y-52.578
X118.364Y-52.578
X120.904Y-52.578
X123.444Y-52.578
X125.984Y-52.578
X128.524Y-52.578
X107.696Y-80.812
X107.696Y-83.312
X119.42Y-112.014
X121.92Y-112.014
X132.588Y-52.578
X135.128Y-52.578
X137.668Y-52.578
X140.208Y-52.578
X142.748Y-52.578
X145.288Y-52.578
X147.828Y-52.578
X150.368Y-52.578
X152.908Y-52.578
X105.41Y-124.333
X105.41Y-131.953
X190.5Y-108.712
X193.0Y-108.712
X119.42Y-128.778
X121.92Y-128.778
X195.707Y-108.712
X198.207Y-108.712
X180.086Y-110.998
X180.086Y-113.538
X180.086Y-116.078
X180.086Y-118.618
X180.086Y-121.158
X180.086Y-123.698
X180.086Y-126.238
X180.086Y-128.778
X180.086Y-131.318
X180.086Y-133.858
X187.706Y-110.998
X187.706Y-113.538
X187.706Y-116.078
X187.706Y-118.618
X187.706Y-121.158
X187.706Y-123.698
X187.706Y-126.238
X187.706Y-128.778
X187.706Y-131.318
X187.706Y-133.858
X182.88Y-57.912
X182.88Y-60.452
X182.88Y-62.992
X182.88Y-65.532
X182.88Y-68.072
X182.88Y-70.612
X182.88Y-73.152
X182.88Y-75.692
X182.88Y-78.232
X182.88Y-80.772
X182.88Y-83.312
X182.88Y-85.852
X182.88Y-88.392
X182.88Y-90.932
X182.88Y-93.472
X182.88Y-96.012
X182.88Y-98.552
X182.88Y-101.092
X182.88Y-103.632
X182.88Y-106.172
X198.12Y-57.912
X198.12Y-60.452
X198.12Y-62.992
X198.12Y-65.532
X198.12Y-68.072
X198.12Y-70.612
X198.12Y-73.152
X198.12Y-75.692
X198.12Y-78.232
X198.12Y-80.772
X198.12Y-83.312
X198.12Y-85.852
X198.12Y-88.392
X198.12Y-90.932
X198.12Y-93.472
X198.12Y-96.012
X198.12Y-98.552
X198.12Y-101.092
X198.12Y-103.632
X198.12Y-106.172
X141.518Y-55.118
X144.018Y-55.118
X190.5Y-116.078
X190.5Y-118.618
X190.5Y-121.158
X190.5Y-123.698
X190.5Y-126.238
X190.5Y-128.778
X190.5Y-131.318
X190.5Y-133.858
X198.12Y-116.078
X198.12Y-118.618
X198.12Y-121.158
X198.12Y-123.698
X198.12Y-126.238
X198.12Y-128.778
X198.12Y-131.318
X198.12Y-133.858
X159.552Y-55.118
X162.052Y-55.118
X163.957Y-108.077
X166.457Y-108.077
X164.846Y-57.912
X164.846Y-60.452
X164.846Y-62.992
X164.846Y-65.532
X164.846Y-68.072
X164.846Y-70.612
X164.846Y-73.152
X164.846Y-75.692
X164.846Y-78.232
X164.846Y-80.772
X164.846Y-83.312
X164.846Y-85.852
X164.846Y-88.392
X164.846Y-90.932
X180.086Y-57.912
X180.086Y-60.452
X180.086Y-62.992
X180.086Y-65.532
X180.086Y-68.072
X180.086Y-70.612
X180.086Y-73.152
X180.086Y-75.692
X180.086Y-78.232
X180.086Y-80.772
X180.086Y-83.312
X180.086Y-85.852
X180.086Y-88.392
X180.086Y-90.932
X135.636Y-99.06
X138.136Y-99.06
X119.634Y-124.968
X122.134Y-124.968
X195.682Y-110.884
X195.682Y-113.384
X135.636Y-118.618
X135.636Y-121.158
X135.636Y-123.698
X135.636Y-126.238
X135.636Y-128.778
X135.636Y-131.318
X135.636Y-133.858
X143.256Y-118.618
X143.256Y-121.158
X143.256Y-123.698
X143.256Y-126.238
X143.256Y-128.778
X143.256Y-131.318
X143.256Y-133.858
X146.812Y-57.912
X146.812Y-60.452
X146.812Y-62.992
X146.812Y-65.532
X146.812Y-68.072
X146.812Y-70.612
X146.812Y-73.152
X146.812Y-75.692
X146.812Y-78.232
X146.812Y-80.772
X146.812Y-83.312
X146.812Y-85.852
X146.812Y-88.392
X146.812Y-90.932
X146.812Y-93.472
X146.812Y-96.012
X162.052Y-57.912
X162.052Y-60.452
X162.052Y-62.992
X162.052Y-65.532
X162.052Y-68.072
X162.052Y-70.612
X162.052Y-73.152
X162.052Y-75.692
X162.052Y-78.232
X162.052Y-80.772
X162.052Y-83.312
X162.052Y-85.852
X162.052Y-88.392
X162.052Y-90.932
X162.052Y-93.472
X162.052Y-96.012
X149.138Y-99.06
X151.638Y-99.06
X135.636Y-115.824
X138.136Y-115.824
X151.17Y-115.824
X153.67Y-115.824
X156.464Y-110.998
X156.464Y-113.538
X156.464Y-116.078
X156.464Y-118.618
X156.464Y-121.158
X156.464Y-123.698
X156.464Y-126.238
X156.464Y-128.778
X156.464Y-131.318
X156.464Y-133.858
X164.084Y-110.998
X164.084Y-113.538
X164.084Y-116.078
X164.084Y-118.618
X164.084Y-121.158
X164.084Y-123.698
X164.084Y-126.238
X164.084Y-128.778
X164.084Y-131.318
X164.084Y-133.858
X190.754Y-55.118
X193.254Y-55.118
X125.222Y-116.078
X125.222Y-118.618
X125.222Y-121.158
X125.222Y-123.698
X125.222Y-126.238
X125.222Y-128.778
X125.222Y-131.318
X125.222Y-133.858
X132.842Y-116.078
X132.842Y-118.618
X132.842Y-121.158
X132.842Y-123.698
X132.842Y-126.238
X132.842Y-128.778
X132.842Y-131.318
X132.842Y-133.858
X130.556Y-102.87
X130.556Y-110.49
X138.176Y-102.87
X138.176Y-110.49
X128.778Y-57.912
X128.778Y-60.452
X128.778Y-62.992
X128.778Y-65.532
X128.778Y-68.072
X128.778Y-70.612
X128.778Y-73.152
X128.778Y-75.692
X128.778Y-78.232
X128.778Y-80.772
X128.778Y-83.312
X128.778Y-85.852
X128.778Y-88.392
X128.778Y-90.932
X128.778Y-93.472
X128.778Y-96.012
X144.018Y-57.912
X144.018Y-60.452
X144.018Y-62.992
X144.018Y-65.532
X144.018Y-68.072
X144.018Y-70.612
X144.018Y-73.152
X144.018Y-75.692
X144.018Y-78.232
X144.018Y-80.772
X144.018Y-83.312
X144.018Y-85.852
X144.018Y-88.392
X144.018Y-90.932
X144.018Y-93.472
X144.018Y-96.012
X198.222Y-110.884
X198.222Y-113.384
X177.292Y-111.1
X177.292Y-113.64
X177.292Y-116.18
X177.292Y-118.72
X177.292Y-121.26
X177.292Y-123.8
X177.292Y-126.34
X177.292Y-128.88
X177.292Y-131.42
X107.696Y-57.912
X107.696Y-60.452
X107.696Y-62.992
X107.696Y-65.532
X107.696Y-68.072
X107.696Y-70.612
X107.696Y-73.152
X107.696Y-75.692
X107.696Y-78.232
X102.529Y-134.239
X105.029Y-134.239
X140.756Y-115.824
X143.256Y-115.824
X190.602Y-110.884
X190.602Y-113.384
X193.142Y-110.884
X193.142Y-113.384
X146.05Y-118.618
X146.05Y-121.158
X146.05Y-123.698
X146.05Y-126.238
X146.05Y-128.778
X146.05Y-131.318
X146.05Y-133.858
X153.67Y-118.618
X153.67Y-121.158
X153.67Y-123.698
X153.67Y-126.238
X153.67Y-128.778
X153.67Y-131.318
X153.67Y-133.858
X110.744Y-57.912
X110.744Y-60.452
X110.744Y-62.992
X110.744Y-65.532
X110.744Y-68.072
X110.744Y-70.612
X110.744Y-73.152
X110.744Y-75.692
X110.744Y-78.232
X110.744Y-80.772
X110.744Y-83.312
X110.744Y-85.852
X110.744Y-88.392
X110.744Y-90.932
X110.744Y-93.472
X110.744Y-96.012
X110.744Y-98.552
X110.744Y-101.092
X110.744Y-103.632
X110.744Y-106.172
X125.984Y-57.912
X125.984Y-60.452
X125.984Y-62.992
X125.984Y-65.532
X125.984Y-68.072
X125.984Y-70.612
X125.984Y-73.152
X125.984Y-75.692
X125.984Y-78.232
X125.984Y-80.772
X125.984Y-83.312
X125.984Y-85.852
X125.984Y-88.392
X125.984Y-90.932
X125.984Y-93.472
X125.984Y-96.012
X125.984Y-98.552
X125.984Y-101.092
X125.984Y-103.632
X125.984Y-106.172
X177.586Y-55.118
X180.086Y-55.118
X119.217Y-134.493
X121.717Y-134.493
X172.887Y-108.204
X175.387Y-108.204
X166.878Y-110.998
X166.878Y-113.538
X166.878Y-116.078
X166.878Y-118.618
X166.878Y-121.158
X166.878Y-123.698
X166.878Y-126.238
X166.878Y-128.778
X166.878Y-131.318
X166.878Y-133.858
X174.498Y-110.998
X174.498Y-113.538
X174.498Y-116.078
X174.498Y-118.618
X174.498Y-121.158
X174.498Y-123.698
X174.498Y-126.238
X174.498Y-128.778
X174.498Y-131.318
X174.498Y-133.858
X144.018Y-102.87
X144.018Y-110.49
X151.638Y-102.87
X151.638Y-110.49
T7
X113.284Y-135.636
X113.284Y-138.176
X108.712Y-135.636
X108.712Y-138.176
T8
X149.86Y-139.192
X152.4Y-139.192
X154.94Y-139.192
X157.48Y-139.192
X160.02Y-139.192
X157.48Y-52.578
X160.02Y-52.578
X131.826Y-139.192
X134.366Y-139.192
X136.906Y-139.192
X139.446Y-139.192
X141.986Y-139.192
X131.826Y-144.78
X131.826Y-147.32
X134.366Y-144.78
X134.366Y-147.32
X136.906Y-144.78
X136.906Y-147.32
X139.446Y-144.78
X139.446Y-147.32
X141.986Y-144.78
X141.986Y-147.32
X167.64Y-139.192
X167.64Y-141.732
X170.18Y-139.192
X170.18Y-141.732
X172.72Y-139.192
X172.72Y-141.732
X175.26Y-139.192
X175.26Y-141.732
X177.8Y-139.192
X177.8Y-141.732
X180.34Y-139.192
X180.34Y-141.732
X182.88Y-139.192
X182.88Y-141.732
X185.42Y-139.192
X185.42Y-141.732
X187.96Y-139.192
X187.96Y-141.732
X190.5Y-139.192
X190.5Y-141.732
X193.04Y-139.192
X193.04Y-141.732
X195.58Y-139.192
X195.58Y-141.732
X198.12Y-139.192
X198.12Y-141.732
X101.854Y-57.912
X101.854Y-60.452
X101.854Y-62.992
X101.854Y-65.532
X101.854Y-68.072
X101.854Y-70.612
X101.854Y-73.152
X101.854Y-75.692
X101.854Y-78.232
X101.854Y-80.772
X101.854Y-83.312
X101.854Y-85.852
X101.854Y-88.392
X101.854Y-90.932
X101.854Y-93.472
X101.854Y-96.012
X101.854Y-98.552
X101.854Y-101.092
X101.854Y-103.632
X101.854Y-106.172
X104.394Y-57.912
X104.394Y-60.452
X104.394Y-62.992
X104.394Y-65.532
X104.394Y-68.072
X104.394Y-70.612
X104.394Y-73.152
X104.394Y-75.692
X104.394Y-78.232
X104.394Y-80.772
X104.394Y-83.312
X104.394Y-85.852
X104.394Y-88.392
X104.394Y-90.932
X104.394Y-93.472
X104.394Y-96.012
X104.394Y-98.552
X104.394Y-101.092
X104.394Y-103.632
X104.394Y-106.172
X101.854Y-114.046
X101.854Y-116.586
X101.854Y-119.126
X101.854Y-121.666
X101.854Y-124.206
X101.854Y-126.746
X101.854Y-129.286
X149.86Y-144.78
X149.86Y-147.32
X152.4Y-144.78
X152.4Y-147.32
X154.94Y-144.78
X154.94Y-147.32
X157.48Y-144.78
X157.48Y-147.32
X160.02Y-144.78
X160.02Y-147.32
T9
X107.94Y-126.742
X107.94Y-131.242
X114.44Y-126.742
X114.44Y-131.242
T3
X107.348Y-146.62G85X107.348Y-145.42
G05
X114.648Y-146.62G85X114.648Y-145.42
G05
T0
M30
